<svg width="733" height="161" viewBox="0 0 733 161" fill="none" xmlns="http://www.w3.org/2000/svg">
<path d="M224.127 45.2317C215.101 32.5264 197.804 29.1094 184.759 37.4817L169.874 47.0283L136.492 68.4347L49.6838 124.105C40.5522 113.843 35.2293 100.351 34.9614 86.424C34.6702 72.3097 39.5621 58.9586 48.4025 49.8112C57.3594 40.5347 70.6142 35.2272 84.8008 35.2272H85.1502C101.002 35.3211 115.76 41.7794 126.72 53.3927L130.261 57.1502L160.241 37.8223L152.053 29.1329C134.489 10.4977 110.798 0.152651 85.3599 0H84.8008C61.238 0 38.8749 9.18255 23.3605 25.2462C8.04417 41.0984 -0.458458 63.6673 0.019087 87.1521C0.531574 112.011 11.0376 136.024 28.8814 153.027C34.414 158.288 41.5538 161 48.7753 161C54.1797 161 59.619 159.485 64.4411 156.385L129.189 114.864L198.55 70.3839C204.408 81.6566 204.525 95.1604 198.503 105.435C188.999 121.639 166.438 127.1 148.827 117.612H148.815L115.597 139.089L115.562 139.147L130.773 147.813C165.261 167.494 209.137 156.514 228.577 123.366C242.6 99.4464 240.853 68.787 224.127 45.2317Z" fill="url(#paint0_linear_1316_12)"/>
<path d="M692.85 65.776C698.358 65.776 703.511 66.594 708.31 68.23C713.164 69.866 717.39 72.2655 720.989 75.4284C724.643 78.5368 727.506 82.4087 729.578 87.044C731.705 91.6248 732.768 96.9145 732.768 102.913V105.858C732.768 108.039 731.678 109.13 729.496 109.13H676.817C677.144 114.147 678.644 118.155 681.316 121.155C684.043 124.154 687.724 125.654 692.359 125.654C695.958 125.654 698.93 124.945 701.275 123.527C703.62 122.054 705.283 120.2 706.265 117.964C706.701 117.037 707.165 116.356 707.656 115.919C708.201 115.429 708.937 115.183 709.864 115.183H728.024C729.169 115.183 730.014 115.538 730.56 116.247C731.16 116.901 731.241 117.801 730.805 118.946C729.387 123.036 727.451 126.608 724.997 129.662C722.543 132.661 719.68 135.17 716.408 137.187C713.136 139.205 709.51 140.705 705.529 141.686C701.602 142.668 697.376 143.159 692.85 143.159C686.633 143.159 680.934 142.286 675.754 140.541C670.628 138.742 666.21 136.179 662.502 132.852C658.794 129.471 655.904 125.408 653.831 120.664C651.814 115.865 650.805 110.493 650.805 104.549C650.805 98.6596 651.841 93.3426 653.913 88.5982C656.04 83.7993 658.985 79.7093 662.747 76.3282C666.51 72.9471 670.955 70.3568 676.081 68.5572C681.207 66.7031 686.797 65.776 692.85 65.776ZM706.756 95.8784C706.483 91.952 705.038 88.7345 702.421 86.226C699.857 83.7175 696.395 82.4632 692.032 82.4632C689.741 82.4632 687.751 82.7904 686.06 83.4448C684.37 84.0992 682.925 85.0263 681.725 86.226C680.525 87.4257 679.544 88.8436 678.78 90.4796C678.017 92.1156 677.471 93.9152 677.144 95.8784H706.756Z" fill="#693403"/>
<path d="M617.092 140.541C614.911 140.541 613.82 139.451 613.82 137.269V17.8412C621.782 19.4772 627.863 22.9673 632.062 28.3116C636.261 33.6013 638.36 40.4725 638.36 48.9252V137.269C638.36 139.451 637.27 140.541 635.088 140.541H617.092Z" fill="#693403"/>
<path d="M602.733 136.451C603.715 137.542 604.015 138.496 603.633 139.314C603.251 140.132 602.351 140.541 600.934 140.541H575.903C574.267 140.541 572.958 139.887 571.976 138.578L548.091 108.476V137.269C548.091 139.451 547 140.541 544.819 140.541H526.823C524.641 140.541 523.551 139.451 523.551 137.269V17.8412C531.513 19.4772 537.593 22.9673 541.792 28.3116C545.991 33.6013 548.091 40.4725 548.091 48.9252V97.3508L571.158 70.1932C571.758 69.5388 572.385 69.0753 573.04 68.8026C573.694 68.5299 574.43 68.3936 575.248 68.3936H599.298C600.715 68.3936 601.588 68.8026 601.915 69.6206C602.242 70.4386 601.915 71.3929 600.934 72.4836L571.486 102.75L602.733 136.451Z" fill="#693403"/>
<path d="M510.298 67.4121C511.225 67.6848 511.879 68.1483 512.261 68.8027C512.697 69.4571 512.915 70.2478 512.915 71.1749V87.3713C512.915 89.2254 512.097 90.1525 510.461 90.1525C510.243 90.1525 510.025 90.1525 509.807 90.1525C509.643 90.1525 509.425 90.098 509.152 89.9889C506.371 89.3345 503.863 89.0073 501.627 89.0073C497.21 89.0073 493.747 90.2888 491.238 92.8519C488.73 95.415 487.23 99.205 486.739 104.222V137.269C486.739 139.451 485.649 140.541 483.467 140.541H465.471C463.29 140.541 462.199 139.451 462.199 137.269V66.7577C472.07 68.83 478.995 73.6289 482.976 81.1545C484.285 78.5369 485.73 76.3283 487.312 74.5287C488.948 72.6746 490.693 71.1749 492.547 70.0297C494.456 68.8845 496.446 68.0665 498.518 67.5757C500.591 67.0304 502.717 66.7577 504.899 66.7577C505.826 66.7577 506.753 66.8395 507.68 67.0031C508.607 67.1122 509.48 67.2485 510.298 67.4121Z" fill="#693403"/>
<path d="M409.744 65.776C415.252 65.776 420.406 66.594 425.205 68.23C430.058 69.866 434.284 72.2655 437.884 75.4284C441.537 78.5368 444.4 82.4087 446.473 87.044C448.599 91.6248 449.663 96.9145 449.663 102.913V105.858C449.663 108.039 448.572 109.13 446.391 109.13H393.712C394.039 114.147 395.538 118.155 398.211 121.155C400.937 124.154 404.618 125.654 409.254 125.654C412.853 125.654 415.825 124.945 418.17 123.527C420.515 122.054 422.178 120.2 423.16 117.964C423.596 117.037 424.059 116.356 424.55 115.919C425.096 115.429 425.832 115.183 426.759 115.183H444.918C446.064 115.183 446.909 115.538 447.454 116.247C448.054 116.901 448.136 117.801 447.7 118.946C446.282 123.036 444.346 126.608 441.892 129.662C439.438 132.661 436.575 135.17 433.303 137.187C430.031 139.205 426.404 140.705 422.423 141.686C418.497 142.668 414.271 143.159 409.744 143.159C403.528 143.159 397.829 142.286 392.648 140.541C387.522 138.742 383.105 136.179 379.397 132.852C375.688 129.471 372.798 125.408 370.726 120.664C368.708 115.865 367.699 110.493 367.699 104.549C367.699 98.6596 368.735 93.3426 370.808 88.5982C372.934 83.7993 375.879 79.7093 379.642 76.3282C383.405 72.9471 387.849 70.3568 392.975 68.5572C398.102 66.7031 403.691 65.776 409.744 65.776ZM423.65 95.8784C423.378 91.952 421.933 88.7345 419.315 86.226C416.752 83.7175 413.289 82.4632 408.926 82.4632C406.636 82.4632 404.646 82.7904 402.955 83.4448C401.264 84.0992 399.819 85.0263 398.62 86.226C397.42 87.4257 396.438 88.8436 395.675 90.4796C394.911 92.1156 394.366 93.9152 394.039 95.8784H423.65Z" fill="#693403"/>
<path d="M315.354 142.177C310.01 142.177 304.802 141.523 299.73 140.214C294.659 138.905 290.105 136.833 286.07 133.997C282.089 131.162 278.817 127.535 276.254 123.118C273.745 118.701 272.327 113.384 272 107.167C272 104.986 273.091 103.895 275.272 103.895H294.413C296.431 103.895 297.522 104.931 297.685 107.003C298.067 109.512 298.83 111.72 299.976 113.629C301.121 115.538 302.566 117.146 304.311 118.455C306.056 119.71 308.074 120.664 310.364 121.318C312.655 121.918 315.136 122.218 317.808 122.218C319.88 122.218 321.871 122.027 323.779 121.645C325.688 121.209 327.379 120.528 328.851 119.6C330.323 118.673 331.496 117.446 332.368 115.919C333.241 114.338 333.677 112.402 333.677 110.112C333.677 106.785 332.777 104.168 330.978 102.259C329.178 100.35 326.806 98.8232 323.861 97.678C320.971 96.5328 317.672 95.5785 313.963 94.815C310.31 94.0516 306.574 93.1518 302.757 92.1156C299.43 91.1886 296.131 90.0706 292.859 88.7618C289.642 87.453 286.724 85.708 284.106 83.5266C281.543 81.2908 279.444 78.4823 277.808 75.1012C276.226 71.6656 275.436 67.412 275.436 62.3404C275.436 56.2872 276.581 51.0793 278.871 46.7166C281.162 42.354 284.161 38.7548 287.869 35.919C291.577 33.0833 295.777 31.011 300.466 29.7022C305.211 28.3389 310.01 27.6572 314.863 27.6572C319.553 27.6572 324.188 28.2571 328.769 29.4568C333.35 30.6566 337.495 32.5652 341.203 35.1828C344.966 37.7459 348.074 41.0724 350.528 45.1624C353.037 49.1979 354.509 54.0514 354.945 59.7228C355.109 62.0132 354.073 63.1584 351.837 63.1584H334.168C332.205 63.1584 331.06 62.1223 330.732 60.05C330.296 57.7596 329.56 55.8237 328.524 54.2422C327.542 52.6608 326.342 51.3792 324.925 50.3976C323.507 49.416 321.898 48.7071 320.098 48.2708C318.353 47.8346 316.445 47.6164 314.372 47.6164C310.01 47.6164 306.52 48.5708 303.902 50.4794C301.284 52.3336 299.976 55.142 299.976 58.9048C299.976 61.577 300.63 63.731 301.939 65.367C303.302 66.9485 305.102 68.23 307.338 69.2116C309.628 70.1932 312.246 71.0112 315.19 71.6656C318.135 72.2655 321.189 72.9199 324.352 73.6288C328.387 74.5014 332.423 75.592 336.458 76.9008C340.494 78.2096 344.12 80.0638 347.338 82.4632C350.555 84.8627 353.173 87.9711 355.191 91.7884C357.208 95.6058 358.217 100.514 358.217 106.512C358.217 111.039 357.59 115.074 356.336 118.619C355.136 122.164 353.5 125.272 351.428 127.944C349.356 130.562 346.902 132.798 344.066 134.652C341.285 136.451 338.285 137.924 335.068 139.069C331.905 140.16 328.633 140.95 325.252 141.441C321.871 141.932 318.571 142.177 315.354 142.177Z" fill="#693403"/>
<defs>
<linearGradient id="paint0_linear_1316_12" x1="191.706" y1="152.213" x2="40.5246" y2="11.8188" gradientUnits="userSpaceOnUse">
<stop stop-color="#693403"/>
<stop offset="1" stop-color="#DD9A43"/>
</linearGradient>
</defs>
</svg>
