<svg xmlns="http://www.w3.org/2000/svg" xmlns:xlink="http://www.w3.org/1999/xlink" width="733" zoomAndPan="magnify" viewBox="0 0 549.75 120.749998" height="161" preserveAspectRatio="xMidYMid meet" version="1.0"><defs><clipPath id="b9973761d4"><path d="M 239 52 L 285.796875 52 L 285.796875 96 L 239 96 Z M 239 52 " clip-rule="nonzero"/></clipPath></defs><g clip-path="url(#b9973761d4)"><path fill="#693403" d="M 263.238281 52.328125 C 266.328125 52.328125 269.222656 52.789062 271.917969 53.707031 C 274.644531 54.628906 277.015625 55.980469 279.039062 57.757812 C 281.089844 59.507812 282.699219 61.683594 283.863281 64.292969 C 285.054688 66.867188 285.652344 69.84375 285.652344 73.21875 L 285.652344 74.875 C 285.652344 76.101562 285.039062 76.714844 283.816406 76.714844 L 254.234375 76.714844 C 254.417969 79.539062 255.257812 81.792969 256.761719 83.480469 C 258.292969 85.167969 260.359375 86.011719 262.960938 86.011719 C 264.980469 86.011719 266.652344 85.609375 267.96875 84.8125 C 269.285156 83.984375 270.21875 82.941406 270.769531 81.683594 C 271.015625 81.164062 271.277344 80.78125 271.550781 80.535156 C 271.855469 80.257812 272.269531 80.121094 272.792969 80.121094 L 282.988281 80.121094 C 283.632812 80.121094 284.105469 80.320312 284.414062 80.71875 C 284.75 81.085938 284.796875 81.59375 284.550781 82.238281 C 283.753906 84.539062 282.667969 86.546875 281.289062 88.265625 C 279.910156 89.953125 278.304688 91.363281 276.464844 92.496094 C 274.628906 93.632812 272.59375 94.476562 270.355469 95.027344 C 268.152344 95.582031 265.777344 95.855469 263.238281 95.855469 C 259.746094 95.855469 256.546875 95.367188 253.636719 94.382812 C 250.757812 93.371094 248.277344 91.929688 246.195312 90.058594 C 244.113281 88.15625 242.488281 85.871094 241.324219 83.203125 C 240.191406 80.503906 239.625 77.480469 239.625 74.136719 C 239.625 70.824219 240.207031 67.835938 241.371094 65.164062 C 242.566406 62.464844 244.21875 60.164062 246.332031 58.265625 C 248.445312 56.363281 250.941406 54.90625 253.820312 53.894531 C 256.699219 52.851562 259.835938 52.328125 263.238281 52.328125 Z M 271.046875 69.261719 C 270.890625 67.050781 270.082031 65.242188 268.613281 63.832031 C 267.171875 62.421875 265.226562 61.714844 262.777344 61.714844 C 261.492188 61.714844 260.375 61.898438 259.425781 62.265625 C 258.476562 62.636719 257.664062 63.15625 256.988281 63.832031 C 256.316406 64.507812 255.765625 65.304688 255.335938 66.222656 C 254.90625 67.144531 254.601562 68.15625 254.417969 69.261719 Z M 271.046875 69.261719 " fill-opacity="1" fill-rule="nonzero"/></g><path fill="#693403" d="M 220.695312 94.382812 C 219.46875 94.382812 218.855469 93.769531 218.855469 92.542969 L 218.855469 25.363281 C 223.328125 26.285156 226.742188 28.25 229.101562 31.253906 C 231.460938 34.230469 232.636719 38.09375 232.636719 42.851562 L 232.636719 92.542969 C 232.636719 93.769531 232.027344 94.382812 230.800781 94.382812 Z M 220.695312 94.382812 " fill-opacity="1" fill-rule="nonzero"/><path fill="#693403" d="M 212.632812 92.082031 C 213.183594 92.695312 213.351562 93.234375 213.136719 93.695312 C 212.921875 94.152344 212.417969 94.382812 211.621094 94.382812 L 197.566406 94.382812 C 196.644531 94.382812 195.910156 94.015625 195.359375 93.28125 L 181.945312 76.347656 L 181.945312 92.542969 C 181.945312 93.769531 181.335938 94.382812 180.109375 94.382812 L 170.003906 94.382812 C 168.777344 94.382812 168.167969 93.769531 168.167969 92.542969 L 168.167969 25.363281 C 172.636719 26.285156 176.050781 28.25 178.410156 31.253906 C 180.765625 34.230469 181.945312 38.09375 181.945312 42.851562 L 181.945312 70.089844 L 194.898438 54.8125 C 195.238281 54.445312 195.589844 54.183594 195.957031 54.03125 C 196.324219 53.878906 196.738281 53.800781 197.195312 53.800781 L 210.703125 53.800781 C 211.496094 53.800781 211.988281 54.03125 212.171875 54.492188 C 212.355469 54.949219 212.171875 55.488281 211.621094 56.101562 L 195.085938 73.125 Z M 212.632812 92.082031 " fill-opacity="1" fill-rule="nonzero"/><path fill="#693403" d="M 160.722656 53.25 C 161.246094 53.402344 161.613281 53.664062 161.824219 54.03125 C 162.070312 54.398438 162.191406 54.84375 162.191406 55.367188 L 162.191406 64.476562 C 162.191406 65.519531 161.734375 66.039062 160.816406 66.039062 C 160.691406 66.039062 160.570312 66.039062 160.449219 66.039062 C 160.355469 66.039062 160.234375 66.007812 160.082031 65.949219 C 158.519531 65.582031 157.109375 65.394531 155.855469 65.394531 C 153.375 65.394531 151.429688 66.117188 150.019531 67.558594 C 148.613281 69 147.769531 71.132812 147.492188 73.953125 L 147.492188 92.542969 C 147.492188 93.769531 146.882812 94.382812 145.65625 94.382812 L 135.550781 94.382812 C 134.324219 94.382812 133.714844 93.769531 133.714844 92.542969 L 133.714844 52.878906 C 139.257812 54.046875 143.144531 56.746094 145.382812 60.980469 C 146.117188 59.507812 146.925781 58.265625 147.816406 57.25 C 148.734375 56.207031 149.714844 55.367188 150.753906 54.722656 C 151.828125 54.078125 152.945312 53.617188 154.109375 53.339844 C 155.273438 53.035156 156.464844 52.878906 157.691406 52.878906 C 158.210938 52.878906 158.734375 52.925781 159.253906 53.019531 C 159.773438 53.078125 160.265625 53.15625 160.722656 53.25 Z M 160.722656 53.25 " fill-opacity="1" fill-rule="nonzero"/><path fill="#693403" d="M 104.257812 52.328125 C 107.351562 52.328125 110.246094 52.789062 112.9375 53.707031 C 115.664062 54.628906 118.039062 55.980469 120.058594 57.757812 C 122.109375 59.507812 123.71875 61.683594 124.882812 64.292969 C 126.078125 66.867188 126.675781 69.84375 126.675781 73.21875 L 126.675781 74.875 C 126.675781 76.101562 126.0625 76.714844 124.835938 76.714844 L 95.253906 76.714844 C 95.4375 79.539062 96.28125 81.792969 97.78125 83.480469 C 99.3125 85.167969 101.378906 86.011719 103.980469 86.011719 C 106.003906 86.011719 107.671875 85.609375 108.988281 84.8125 C 110.304688 83.984375 111.238281 82.941406 111.789062 81.683594 C 112.035156 81.164062 112.296875 80.78125 112.570312 80.535156 C 112.878906 80.257812 113.292969 80.121094 113.8125 80.121094 L 124.007812 80.121094 C 124.652344 80.121094 125.128906 80.320312 125.433594 80.71875 C 125.769531 81.085938 125.816406 81.59375 125.570312 82.238281 C 124.773438 84.539062 123.6875 86.546875 122.308594 88.265625 C 120.933594 89.953125 119.324219 91.363281 117.488281 92.496094 C 115.648438 93.632812 113.613281 94.476562 111.378906 95.027344 C 109.171875 95.582031 106.800781 95.855469 104.257812 95.855469 C 100.765625 95.855469 97.566406 95.367188 94.65625 94.382812 C 91.777344 93.371094 89.296875 91.929688 87.214844 90.058594 C 85.132812 88.15625 83.511719 85.871094 82.347656 83.203125 C 81.214844 80.503906 80.648438 77.480469 80.648438 74.136719 C 80.648438 70.824219 81.226562 67.835938 82.390625 65.164062 C 83.585938 62.464844 85.238281 60.164062 87.351562 58.265625 C 89.464844 56.363281 91.960938 54.90625 94.839844 53.894531 C 97.71875 52.851562 100.859375 52.328125 104.257812 52.328125 Z M 112.066406 69.261719 C 111.914062 67.050781 111.101562 65.242188 109.632812 63.832031 C 108.191406 62.421875 106.246094 61.714844 103.796875 61.714844 C 102.511719 61.714844 101.394531 61.898438 100.445312 62.265625 C 99.496094 62.636719 98.683594 63.15625 98.011719 63.832031 C 97.335938 64.507812 96.785156 65.304688 96.355469 66.222656 C 95.925781 67.144531 95.621094 68.15625 95.4375 69.261719 Z M 112.066406 69.261719 " fill-opacity="1" fill-rule="nonzero"/><path fill="#693403" d="M 51.25 95.304688 C 48.25 95.304688 45.328125 94.9375 42.476562 94.199219 C 39.628906 93.464844 37.074219 92.296875 34.808594 90.703125 C 32.570312 89.109375 30.734375 87.066406 29.296875 84.582031 C 27.886719 82.097656 27.089844 79.109375 26.90625 75.609375 C 26.90625 74.382812 27.519531 73.769531 28.742188 73.769531 L 39.492188 73.769531 C 40.625 73.769531 41.238281 74.351562 41.328125 75.519531 C 41.542969 76.929688 41.972656 78.171875 42.617188 79.246094 C 43.257812 80.320312 44.070312 81.222656 45.050781 81.960938 C 46.03125 82.667969 47.164062 83.203125 48.449219 83.570312 C 49.734375 83.910156 51.128906 84.078125 52.628906 84.078125 C 53.792969 84.078125 54.910156 83.96875 55.984375 83.753906 C 57.054688 83.507812 58.003906 83.125 58.832031 82.605469 C 59.65625 82.082031 60.316406 81.394531 60.804688 80.535156 C 61.296875 79.644531 61.542969 78.554688 61.542969 77.265625 C 61.542969 75.394531 61.035156 73.925781 60.027344 72.851562 C 59.015625 71.777344 57.683594 70.917969 56.027344 70.273438 C 54.40625 69.628906 52.554688 69.09375 50.472656 68.664062 C 48.417969 68.234375 46.320312 67.726562 44.179688 67.144531 C 42.308594 66.621094 40.457031 65.996094 38.621094 65.257812 C 36.8125 64.523438 35.175781 63.539062 33.703125 62.3125 C 32.265625 61.054688 31.085938 59.476562 30.167969 57.574219 C 29.28125 55.640625 28.835938 53.25 28.835938 50.394531 C 28.835938 46.992188 29.480469 44.0625 30.765625 41.609375 C 32.050781 39.152344 33.734375 37.128906 35.816406 35.535156 C 37.898438 33.9375 40.257812 32.773438 42.890625 32.035156 C 45.554688 31.269531 48.25 30.886719 50.976562 30.886719 C 53.609375 30.886719 56.210938 31.222656 58.785156 31.898438 C 61.359375 32.574219 63.683594 33.648438 65.765625 35.121094 C 67.878906 36.5625 69.625 38.433594 71.003906 40.734375 C 72.414062 43.003906 73.238281 45.734375 73.484375 48.921875 C 73.578125 50.210938 72.996094 50.855469 71.738281 50.855469 L 61.816406 50.855469 C 60.714844 50.855469 60.070312 50.273438 59.886719 49.109375 C 59.644531 47.820312 59.230469 46.730469 58.648438 45.839844 C 58.097656 44.949219 57.421875 44.230469 56.625 43.679688 C 55.832031 43.125 54.925781 42.726562 53.914062 42.480469 C 52.9375 42.238281 51.863281 42.113281 50.699219 42.113281 C 48.25 42.113281 46.292969 42.652344 44.820312 43.722656 C 43.351562 44.765625 42.617188 46.347656 42.617188 48.464844 C 42.617188 49.964844 42.984375 51.179688 43.71875 52.097656 C 44.484375 52.988281 45.496094 53.707031 46.75 54.261719 C 48.035156 54.8125 49.507812 55.273438 51.160156 55.640625 C 52.8125 55.980469 54.527344 56.347656 56.304688 56.746094 C 58.570312 57.238281 60.835938 57.851562 63.101562 58.585938 C 65.371094 59.324219 67.40625 60.367188 69.210938 61.714844 C 71.019531 63.066406 72.488281 64.8125 73.621094 66.960938 C 74.753906 69.109375 75.320312 71.867188 75.320312 75.242188 C 75.320312 77.789062 74.96875 80.058594 74.265625 82.050781 C 73.589844 84.046875 72.671875 85.796875 71.507812 87.296875 C 70.347656 88.769531 68.96875 90.027344 67.375 91.070312 C 65.8125 92.082031 64.128906 92.910156 62.324219 93.554688 C 60.546875 94.167969 58.707031 94.613281 56.808594 94.890625 C 54.910156 95.167969 53.058594 95.304688 51.25 95.304688 Z M 51.25 95.304688 " fill-opacity="1" fill-rule="nonzero"/></svg>