<svg width="374" height="253" viewBox="0 0 374 253" fill="none" xmlns="http://www.w3.org/2000/svg">
<path d="M352.2 71.0784C338.015 51.113 310.835 45.7433 290.336 58.8999L266.944 73.9016L214.488 107.54L78.0745 195.023C63.7248 178.895 55.3603 157.694 54.9393 135.809C54.4818 113.629 62.1691 92.6492 76.0611 78.2748C90.1362 63.6975 110.965 55.357 133.258 55.357H133.807C158.718 55.5046 181.908 65.6534 199.131 83.9028L204.695 89.8075L251.808 59.435L238.941 45.7802C211.339 16.4964 174.111 0.23988 134.137 0H133.258C96.2312 0 61.0892 14.4297 36.7094 39.6725C12.6408 64.5832 -0.720434 100.049 0.0299938 136.953C0.835331 176.017 17.3447 213.752 45.3851 240.471C54.0791 248.738 65.2989 253 76.6468 253C85.1395 253 93.687 250.62 101.265 245.748L203.012 180.501L312.007 110.603C321.213 128.318 321.396 149.538 311.933 165.684C296.998 191.148 261.545 199.728 233.871 184.819H233.852L181.652 218.568L181.597 218.66L205.501 232.278C259.696 263.204 328.644 245.951 359.192 193.86C381.229 156.273 378.483 108.094 352.2 71.0784Z" fill="url(#paint0_linear_1316_116)"/>
<defs>
<linearGradient id="paint0_linear_1316_116" x1="301.252" y1="239.192" x2="63.6814" y2="18.5725" gradientUnits="userSpaceOnUse">
<stop stop-color="#693403"/>
<stop offset="1" stop-color="#DD9A43"/>
</linearGradient>
</defs>
</svg>
