<svg width="461" height="126" viewBox="0 0 461 126" fill="none" xmlns="http://www.w3.org/2000/svg">
<path d="M137.745 47.9346C143.253 47.9346 148.406 48.7527 153.205 50.3887C158.058 52.0246 162.285 54.4241 165.884 57.5869C169.538 60.6953 172.4 64.5678 174.473 69.2031C176.599 73.7839 177.663 79.0736 177.663 85.0723V88.0166C177.663 90.1978 176.573 91.289 174.392 91.2891H121.712C122.039 96.306 123.539 100.314 126.211 103.313C128.938 106.313 132.619 107.812 137.254 107.812C140.853 107.812 143.825 107.103 146.17 105.686C148.515 104.213 150.179 102.359 151.16 100.123C151.596 99.1961 152.06 98.5144 152.551 98.0781C153.096 97.5874 153.833 97.3418 154.76 97.3418H172.919C174.064 97.3418 174.91 97.6963 175.455 98.4053C176.055 99.0596 176.136 99.9595 175.7 101.104C174.282 105.194 172.346 108.767 169.893 111.82C167.439 114.82 164.576 117.329 161.304 119.347C158.032 121.364 154.405 122.864 150.424 123.846C146.498 124.827 142.271 125.317 137.745 125.317C131.528 125.317 125.829 124.445 120.648 122.7C115.522 120.901 111.106 118.337 107.397 115.011C103.689 111.63 100.799 107.567 98.7266 102.822C96.7089 98.0234 95.7002 92.6521 95.7002 86.708C95.7002 80.8184 96.7363 75.5012 98.8086 70.7568C100.935 65.9581 103.88 61.8683 107.643 58.4873C111.405 55.1063 115.85 52.5154 120.976 50.7158C126.102 48.8617 131.692 47.9346 137.745 47.9346ZM420.85 47.9346C426.357 47.9346 431.512 48.7527 436.311 50.3887C441.164 52.0247 445.39 54.4241 448.989 57.5869C452.643 60.6953 455.506 64.5678 457.578 69.2031C459.705 73.7839 460.769 79.0737 460.769 85.0723V88.0166C460.769 90.1979 459.677 91.2891 457.496 91.2891H404.817C405.145 96.306 406.644 100.314 409.316 103.313C412.043 106.313 415.724 107.812 420.359 107.812C423.958 107.812 426.931 107.103 429.275 105.686C431.62 104.213 433.283 102.359 434.265 100.123C434.701 99.1961 435.165 98.5144 435.655 98.0781C436.201 97.5873 436.937 97.3418 437.864 97.3418H456.023C457.169 97.3418 458.014 97.6964 458.56 98.4053C459.159 99.0596 459.241 99.9594 458.805 101.104C457.387 105.194 455.451 108.766 452.997 111.82C450.543 114.82 447.68 117.329 444.408 119.347C441.136 121.364 437.51 122.864 433.529 123.846C429.603 124.827 425.376 125.317 420.85 125.317C414.633 125.317 408.934 124.445 403.754 122.7C398.628 120.901 394.21 118.337 390.502 115.011C386.794 111.63 383.903 107.567 381.831 102.822C379.813 98.0234 378.805 92.652 378.805 86.708C378.805 80.8184 379.841 75.5012 381.913 70.7568C384.04 65.9581 386.984 61.8683 390.747 58.4873C394.51 55.1062 398.955 52.5154 404.081 50.7158C409.207 48.8618 414.797 47.9346 420.85 47.9346ZM42.8633 9.81641C47.5531 9.81641 52.1888 10.4155 56.7695 11.6152C61.3502 12.815 65.4949 14.7242 69.2031 17.3418C72.9658 19.9048 76.0744 23.2314 78.5283 27.3213C81.0368 31.3567 82.5091 36.2104 82.9453 41.8818C83.1088 44.1721 82.0726 45.3173 79.8369 45.3174H62.168C60.2048 45.3174 59.0596 44.2811 58.7324 42.209C58.2962 39.9186 57.5596 37.9828 56.5234 36.4014C55.5419 34.82 54.3426 33.5382 52.9248 32.5566C51.507 31.5751 49.8981 30.866 48.0986 30.4297C46.3536 29.9934 44.4443 29.7754 42.3721 29.7754C38.0096 29.7754 34.5199 30.7301 31.9023 32.6387C29.2848 34.4928 27.9756 37.3008 27.9756 41.0635C27.9756 43.7354 28.6299 45.8894 29.9385 47.5254C31.3018 49.1069 33.102 50.3885 35.3379 51.3701C37.6283 52.3517 40.2457 53.1698 43.1904 53.8242C46.1351 54.4241 49.1887 55.0792 52.3516 55.7881C56.3869 56.6606 60.4227 57.7508 64.458 59.0596C68.4935 60.3684 72.1204 62.2226 75.3379 64.6221C78.5553 67.0215 81.1727 70.13 83.1904 73.9473C85.2081 77.7645 86.2168 82.6724 86.2168 88.6709C86.2168 93.197 85.5901 97.2328 84.3359 100.777C83.1362 104.322 81.4999 107.43 79.4277 110.103C77.3555 112.72 74.9012 114.956 72.0654 116.811C69.2843 118.61 66.2847 120.082 63.0674 121.228C59.9046 122.318 56.6328 123.109 53.252 123.6C49.8711 124.09 46.5718 124.336 43.3545 124.336C38.0103 124.336 32.802 123.682 27.7305 122.373C22.6589 121.064 18.1048 118.992 14.0693 116.156C10.0884 113.321 6.81696 109.694 4.25391 105.276C1.7454 100.859 0.327198 95.542 0 89.3252C0.000152583 87.1442 1.09128 86.0537 3.27246 86.0537H22.4131C24.4308 86.0537 25.5219 87.0898 25.6855 89.1621C26.0673 91.6706 26.8304 93.8794 27.9756 95.7881C29.1207 97.6966 30.5656 99.3055 32.3105 100.614C34.0556 101.869 36.0739 102.823 38.3643 103.478C40.6545 104.077 43.1357 104.377 45.8076 104.377C47.8798 104.377 49.8707 104.186 51.7793 103.805C53.6879 103.368 55.3782 102.686 56.8506 101.759C58.323 100.832 59.4956 99.6051 60.3682 98.0781C61.2407 96.4967 61.6768 94.5609 61.6768 92.2705C61.6768 88.944 60.7771 86.3266 58.9775 84.418C57.178 82.5093 54.8061 80.9821 51.8613 79.8369C48.9712 78.6918 45.672 77.7371 41.9639 76.9736C38.3101 76.2102 34.5742 75.3105 30.7568 74.2744C27.4304 73.3474 24.1312 72.2296 20.8594 70.9209C17.6419 69.6121 14.724 67.8669 12.1064 65.6855C9.54338 63.4497 7.44362 60.6408 5.80762 57.2598C4.22624 53.8242 3.43555 49.5705 3.43555 44.499C3.43558 38.4459 4.58072 33.2376 6.87109 28.875C9.16144 24.5125 12.161 20.9138 15.8691 18.0781C19.5774 15.2424 23.7769 13.1701 28.4668 11.8613C33.2111 10.498 38.0099 9.81641 42.8633 9.81641ZM232.901 48.916C233.828 48.916 234.756 48.9985 235.683 49.1621C236.61 49.2712 237.483 49.4067 238.301 49.5703C239.228 49.843 239.882 50.3067 240.264 50.9609C240.7 51.6153 240.918 52.4069 240.918 53.334V69.5303C240.918 71.3842 240.1 72.3115 238.464 72.3115H237.81C237.646 72.3115 237.428 72.2565 237.155 72.1475C234.374 71.4931 231.866 71.1661 229.63 71.166C225.213 71.166 221.75 72.4477 219.241 75.0107C216.733 77.5738 215.233 81.3638 214.742 86.3809V119.428C214.742 121.609 213.651 122.7 211.47 122.7H193.474C191.292 122.7 190.202 121.609 190.202 119.428V48.916C200.073 50.9883 206.999 55.7879 210.979 63.3135C212.288 60.6959 213.733 58.4871 215.314 56.6875C216.95 54.8334 218.696 53.3337 220.55 52.1885C222.458 51.0433 224.449 50.2252 226.521 49.7344C228.594 49.1891 230.72 48.916 232.901 48.916ZM251.552 0C259.514 1.63601 265.594 5.12644 269.793 10.4707C273.992 15.7604 276.092 22.6314 276.092 31.084V79.5098L299.159 52.3516C299.759 51.6972 300.387 51.2336 301.041 50.9609C301.695 50.6884 302.431 50.5528 303.249 50.5527H327.299C328.716 50.5528 329.589 50.9614 329.916 51.7793C330.243 52.5973 329.916 53.5519 328.935 54.6426L299.486 84.9082L330.734 118.61C331.716 119.701 332.015 120.655 331.634 121.473C331.252 122.291 330.352 122.7 328.935 122.7H303.903C302.268 122.7 300.959 122.046 299.978 120.737L276.092 90.6348V119.428C276.092 121.609 275.001 122.7 272.819 122.7H254.824C252.643 122.7 251.552 121.609 251.552 119.428V0ZM341.819 0C349.781 1.63601 355.861 5.12644 360.061 10.4707C364.26 15.7604 366.359 22.6314 366.359 31.084V119.428C366.359 121.609 365.268 122.7 363.087 122.7H345.092C342.91 122.7 341.819 121.609 341.819 119.428V0ZM136.927 64.6221C134.636 64.6221 132.646 64.9491 130.955 65.6035C129.265 66.2579 127.82 67.1851 126.62 68.3848C125.42 69.5845 124.439 71.0027 123.676 72.6387C122.912 74.2746 122.366 76.0739 122.039 78.0371H151.651C151.379 74.1107 149.933 70.8933 147.315 68.3848C144.752 65.8763 141.289 64.6221 136.927 64.6221ZM420.032 64.6221C417.742 64.6221 415.751 64.9491 414.061 65.6035C412.37 66.2579 410.925 67.1852 409.726 68.3848C408.526 69.5845 407.544 71.0027 406.78 72.6387C406.017 74.2746 405.472 76.074 405.145 78.0371H434.756C434.483 74.1108 433.038 70.8933 430.421 68.3848C427.858 65.8763 424.395 64.6221 420.032 64.6221Z" fill="url(#paint0_linear_1352_4847)"/>
<defs>
<linearGradient id="paint0_linear_1352_4847" x1="371.143" y1="118.478" x2="285.099" y2="-80.2649" gradientUnits="userSpaceOnUse">
<stop stop-color="#713A20"/>
<stop offset="1" stop-color="#E09F4D"/>
</linearGradient>
</defs>
</svg>
